<svg xmlns="http://www.w3.org/2000/svg" viewBox="0 0 24.24 24.24"><defs><style>.cls-1{opacity:0.01;}.cls-2{fill:#fff;}</style></defs><g id="Layer_5" data-name="Layer 5"><g class="cls-1"><path class="cls-2" d="M12,.23h-.16A12,12,0,0,0,.12,12.45a12,12,0,0,0,24-.55A12,12,0,0,0,12,.23Zm.55,4.11a2.38,2.38,0,0,1,3.29,0L17.1,5.65c-.05.06-.05.11-.11.17C15.9,6.91,14.86,8,13.76,9.05l0,.06a2.34,2.34,0,0,1-3.29-.17l1-1c.61.49.94.49,1.54-.11s1.26-1.26,1.92-1.92c.11-.06.16-.17.22-.22-.61-.77-1.1-.82-1.81-.22A3.89,3.89,0,0,0,12.83,5l-.49-.5Zm5.7,6.57-.88.88-2.9-2.9L15.29,8ZM8.77,9.82,7.9,8.94l3-3,.88.88Zm0-5.7a2.17,2.17,0,0,1,2.8.11c.77.71,1.48,1.48,2.25,2.25l-1.05,1L11.46,6.15l-.66-.66-.16-.16a1,1,0,0,0-1.32.16c-.05,0-.16.11-.33.27a4.34,4.34,0,0,1,.5.33,2.57,2.57,0,0,1,.38.33l-1,1L7.13,5.65C7.68,5.16,8.17,4.56,8.77,4.12ZM4.17,8.67A21,21,0,0,1,5.76,7.13c.11.11.22.28.38.44,1,1,2,2,3,3,0,.05.06.05.06.11a2.24,2.24,0,0,1-.33,3.12l-.88-1a.92.92,0,0,0,.28-1.09.2.2,0,0,0-.06-.17C7.35,10.75,6.53,10,5.71,9.16a1,1,0,0,0-.28,1.7l-1,.93A2.23,2.23,0,0,1,4.17,8.67Zm5.59,6.68-.88.88-3-2.9.93-.88ZM4,15.3a2.23,2.23,0,0,1,.22-2.85c.71-.66,1.42-1.37,2.08-2l1,1a4.53,4.53,0,0,1-.49.49c-.5.44-1,.93-1.48,1.43a.38.38,0,0,0-.22.21,1,1,0,0,0,.22,1.32c.11.05.16.16.27.27l.66-.71,1,.93L5.6,17.05A15.24,15.24,0,0,1,4,15.3Zm6.46,5.2A2.07,2.07,0,0,1,8.61,20c-.49-.49-1-1-1.48-1.53l1.43-1.43c.65-.66,1.31-1.31,2-2a2.33,2.33,0,0,1,3.24.22l-1,.93a1.16,1.16,0,0,0-.55-.33.93.93,0,0,0-.82.22L9.1,18.48c.5.71,1,.82,1.76.27l.11.11a6.57,6.57,0,0,0,.87.88A2,2,0,0,1,10.47,20.5Zm4.93-6.08.88.88-3,3-.87-.88Zm-.05,5.81a2.15,2.15,0,0,1-2.58-.11c-.82-.77-1.53-1.59-2.3-2.41l.88-.88.16.17a22.59,22.59,0,0,1,1.7,1.69c.66.72,1.26.66,1.92-.16l-.77-.6,1-1,1.75,1.7A22,22,0,0,1,15.35,20.23Zm5.15-5.48a2.2,2.2,0,0,1-.44.77A20.66,20.66,0,0,1,18.58,17s-.11-.06-.16-.11c-1-1-2-2-3.07-3.07l-.11-.11a2.31,2.31,0,0,1,0-3.23l.11-.11.93.93a4.37,4.37,0,0,0-.27.82.65.65,0,0,0,.16.55c.82.82,1.59,1.64,2.41,2.41.77-.6.82-1,.33-1.81l.93-.93A2.13,2.13,0,0,1,20.5,14.75Zm-.38-3.23c-.72.82-1.54,1.53-2.36,2.3-.27-.28-.55-.55-.82-.88-.06,0-.06,0-.11-.11l1.37-1.37.66-.66.16-.16a.89.89,0,0,0-.16-1.26c-.06-.05-.11-.16-.22-.27l-.72.76-1-1,1.7-1.7c.49.44,1,.88,1.48,1.42A2.25,2.25,0,0,1,20.12,11.52Z"/></g></g></svg>